<svg xmlns="http://www.w3.org/2000/svg" xmlns:xlink="http://www.w3.org/1999/xlink" viewBox="0 0 317.02 66.03"><defs><style>.cls-1{fill:#003161;}.cls-2{fill:url(#linear-gradient);}</style><linearGradient id="linear-gradient" x1="63.04" y1="-2421.59" x2="63.04" y2="-2483.28" gradientTransform="translate(95.76 -2419.38) rotate(180)" gradientUnits="userSpaceOnUse"><stop offset="0" stop-color="#195c9a"/><stop offset="0.36" stop-color="#0176b8"/><stop offset="1" stop-color="#39b3df"/></linearGradient></defs><g id="Layer_2" data-name="Layer 2"><g id="Layer_1-2" data-name="Layer 1"><path class="cls-1" d="M48.17,30.43c-2.35,2.1-5.39,5.14-9.58,21.45,4,0,16-6,15.1-18.72C53.4,29,51.62,27.36,48.17,30.43Z"/><path class="cls-1" d="M126.37,4.77l14.92,35.89a10.51,10.51,0,0,0,.3,1,13.25,13.25,0,0,1,.46,1.8,14.92,14.92,0,0,1,.46-1.8,6.62,6.62,0,0,1,.38-1L157.82,4.77h9.26c-.21.46-.69,1.61-1.46,3.45s-1.72,4.09-2.87,6.77-2.42,5.66-3.82,9-2.85,6.63-4.33,10-2.92,6.74-4.32,10.06-2.68,6.31-3.83,9-2.11,4.92-2.9,6.74-1.29,2.94-1.5,3.4c-.2-.46-.69-1.59-1.45-3.4s-1.72-4.06-2.87-6.74-2.42-5.67-3.83-9-2.84-6.67-4.32-10.06-2.92-6.74-4.32-10l-3.83-9c-1.15-2.68-2.1-4.94-2.87-6.77s-1.25-3-1.45-3.45Z"/><path class="cls-1" d="M173.29,60.56V4.77h37v8.5h-27.7v15h24.64V37H182.62V51.84h28.77v8.72Z"/><path class="cls-1" d="M222.24,60.56V4.77h9.33V51.68h27.09v8.88Z"/><path class="cls-1" d="M261.56,32.89a26.73,26.73,0,0,1,2.19-10.72A28.44,28.44,0,0,1,278.5,7.28a27,27,0,0,1,21.47,0,28.86,28.86,0,0,1,8.86,6,28.38,28.38,0,0,1,6,8.86,27.43,27.43,0,0,1,0,21.48A28,28,0,0,1,300,58.36a27.88,27.88,0,0,1-21.47,0,27.9,27.9,0,0,1-8.79-5.92,28.47,28.47,0,0,1-6-8.79A26.61,26.61,0,0,1,261.56,32.89Zm9.15,0a19,19,0,0,0,1.46,7.41,18.32,18.32,0,0,0,4,6,19.11,19.11,0,0,0,5.95,4.06,18.1,18.1,0,0,0,7.34,1.49,17.69,17.69,0,0,0,7.18-1.49,18.25,18.25,0,0,0,5.88-4.06,19.2,19.2,0,0,0,5.4-13.44,18.53,18.53,0,0,0-1.49-7.4,19.83,19.83,0,0,0-4-6.07,18.7,18.7,0,0,0-5.92-4.1,18.43,18.43,0,0,0-14.52,0,18.31,18.31,0,0,0-5.88,4.1,19.62,19.62,0,0,0-3.94,6.07A18.86,18.86,0,0,0,270.71,32.89Z"/><path class="cls-1" d="M123.4,46.19s-12.51,2.86-17.4-5h2.91c1.22,0,2.27-.46,1.45-2L104.14,27s-3.14,7.74-3.9,9.66-.7,3.09.76,4.66,8,9.56,23.35,7.07l5.74,12.13H119.38l-4.77-10.24S108.15,49,105,46.94a55.4,55.4,0,0,1-5.53-4.3c-.81-.59-1.28-.35-1.74.52s-1.46,3.68-.61,5.19a2.12,2.12,0,0,0,3.14.55c.76-.86.23-1.92-.59-1.87A.81.81,0,0,0,99,48.34s-1.24-.87-.82-1.74A1.17,1.17,0,0,1,100,46c.52.41,4,3.47,6.83,4.27H95.29l-4.57,10.3H79.52L104.14,4.7Z"/><path class="cls-2" d="M13.14,12C2.06,17.05-1,32,.29,38.48S7.72,61,25,65.13,59.3,58.82,64.42,40.81,54.66.46,34.19,0C18.61-.32,16,5.12,16,5.12s16-6.56,31.48,4A53.38,53.38,0,0,1,28.18,15a23.47,23.47,0,0,0,10.69,6.33c-2.7,3.38-5.18,7.25-7.36,9.13C31.51,30.5,24.22,7,13.14,12ZM31.38,51.92C34.85,36.68,52,11.42,52,11.42c12.91,21.24,4.15,34.66,4.15,34.66-1.65,3.4-10.34,18.85-29,14.52S3.62,39.57,8.71,27.74s9.88-4.63,11.14-2.95S28.88,47.49,31.38,51.92Z"/><path class="cls-1" d="M23.62,51.75c-1-6-3.3-13.53-5.46-16.87-1.27-2-5.91-7.39-7,.72S17.16,50.25,23.62,51.75Z"/></g></g></svg>